<?xml version="1.0" encoding="UTF-8" standalone="no"?>
<!-- Created with Inkscape (http://www.inkscape.org/) -->

<svg
   xmlns:dc="http://purl.org/dc/elements/1.1/"
   xmlns:cc="http://creativecommons.org/ns#"
   xmlns:rdf="http://www.w3.org/1999/02/22-rdf-syntax-ns#"
   xmlns:svg="http://www.w3.org/2000/svg"
   xmlns="http://www.w3.org/2000/svg"
   xmlns:sodipodi="http://sodipodi.sourceforge.net/DTD/sodipodi-0.dtd"
   xmlns:inkscape="http://www.inkscape.org/namespaces/inkscape"
   width="613.49103"
   height="768.54626"
   id="svg2"
   version="1.1"
   inkscape:version="0.48.2 r9819"
   sodipodi:docname="undulat-ä.svg"
   inkscape:export-xdpi="90"
   inkscape:export-ydpi="90">
  <defs
     id="defs4" />
  <sodipodi:namedview
     id="base"
     pagecolor="#ffffff"
     bordercolor="#666666"
     borderopacity="1.0"
     inkscape:pageopacity="0.0"
     inkscape:pageshadow="2"
     inkscape:zoom="0.98994949"
     inkscape:cx="434.78069"
     inkscape:cy="520.69541"
     inkscape:document-units="px"
     inkscape:current-layer="layer1"
     showgrid="false"
     fit-margin-top="10"
     fit-margin-left="10"
     fit-margin-right="10"
     fit-margin-bottom="10"
     inkscape:window-width="1280"
     inkscape:window-height="697"
     inkscape:window-x="0"
     inkscape:window-y="0"
     inkscape:window-maximized="1" />
  <metadata
     id="metadata7">
    <rdf:RDF>
      <cc:Work
         rdf:about="">
        <dc:format>image/svg+xml</dc:format>
        <dc:type
           rdf:resource="http://purl.org/dc/dcmitype/StillImage" />
        <dc:title></dc:title>
      </cc:Work>
    </rdf:RDF>
  </metadata>
  <g
     inkscape:label="Layer 1"
     inkscape:groupmode="layer"
     id="layer1"
     transform="translate(-109.41173,-78.238037)">
    <path
       style="fill:#ffe680"
       d="M 84.53125 10 C 79.847119 9.9792324 75.388306 10.218006 71.75 10.75 C 46.32762 14.46724 31.8993 24.51612 21.625 45.625 C 17.88563 53.30766 17.51274 54.86071 16.6875 65.9375 C 16.00515 75.09645 15.1977 79.34123 13.25 83.96875 C 9.09556 93.83928 8.94784 98.65467 12.65625 106.1875 C 14.38184 109.69268 17.60301 114.52836 19.78125 116.9375 L 23.71875 121.3125 L 23.78125 118.21875 C 23.8383 113.92968 24.60383 113.52873 28.1875 116 C 29.89958 117.18064 31.43785 118.23891 31.59375 118.34375 C 31.74966 118.44859 34.11586 125.13132 36.84375 133.1875 L 41.78125 147.84375 L 39.75 163.5625 C 38.6299 172.21709 37.26219 182.9125 36.6875 187.3125 C 34.49054 204.13301 38.93978 244.15129 45.03125 262.3125 C 51.8421 282.61846 87.98385 340.63074 111.59375 369.125 C 120.76594 380.1947 134.57303 390.28112 173.3125 414.3125 C 183.7625 420.79498 192.49788 426.25242 192.71875 426.4375 C 193.34088 426.95885 186.4366 437.01223 183.53125 439.8125 C 182.10465 441.1875 177.68699 444.1125 173.71875 446.3125 C 169.75052 448.5125 165.65465 451.45506 164.625 452.84375 C 163.59535 454.23245 161.97879 459.12282 161.03125 463.71875 L 159.3125 472.0625 L 150.9375 479.6875 C 142.26398 487.56382 134.04592 498.2207 135.8125 499.3125 C 136.36258 499.65248 139.87783 499.61924 143.625 499.25 C 149.98375 498.62343 150.63589 498.77025 153.375 501.15625 L 156.3125 503.6875 L 165.8125 494.3125 L 175.3125 484.9375 L 180.46875 486.28125 C 189.61117 488.69228 195.01662 486.26548 199.3125 477.8125 C 200.57031 475.3375 203.416 471.63333 205.625 469.59375 C 210.24717 465.32609 211.21011 462.20835 209.96875 455.59375 C 209.0932 450.92834 209.12998 450.79205 215.34375 441.5 C 222.047 431.476 222.52882 431.17477 233.8125 429.3125 C 235.7375 428.99479 240.31916 427.99507 244 427.09375 C 250.39472 425.52788 250.88406 425.54092 255 427.375 C 257.36916 428.4307 263.85471 432.75314 269.40625 436.96875 C 274.95778 441.18436 282.83278 446.74351 286.90625 449.34375 C 290.97971 451.944 300.00286 458.52274 306.96875 463.9375 C 313.93464 469.35227 322.19621 475.31026 325.3125 477.1875 C 328.4288 479.06473 334.85471 483.89075 339.59375 487.9375 C 350.9227 497.61149 382.00134 527.72503 398.875 545.34375 C 443.5823 592.0251 455.9724 604.58737 463.09375 610.59375 C 467.46816 614.28327 476.47683 623.6125 483.125 631.3125 C 489.77318 639.0125 504.89106 655.4375 516.71875 667.8125 C 545.03278 697.43673 564.49637 717.93983 588.21875 743.09375 C 596.39963 751.7683 603.23573 758.70177 603.40625 758.53125 C 604.13045 757.80705 599.82634 743.50431 597.90625 740.25 C 595.31252 735.85395 560.1603 686.05591 529.46875 643.3125 C 516.83121 625.7125 498.86372 600.56458 489.5625 587.4375 C 467.61666 556.46469 427.49289 501.36781 413.1875 482.5625 C 410.7812 479.39926 408.8125 476.59114 408.8125 476.34375 C 408.8125 476.09635 412.075 477.83142 416.0625 480.1875 C 433.71882 490.62005 442.69774 494.94558 446.03125 494.625 C 449.11695 494.32825 449.3391 494.05832 449.625 490.125 C 450.26459 481.32559 448.70973 478.74818 433.46875 463 C 406.55584 435.19146 385.49077 410.08068 380.84375 400.3125 C 379.27385 397.0125 374.84332 385.3125 371 374.3125 C 356.47099 332.72886 356.66747 333.20463 336.125 295.8125 C 312.42963 252.68134 297.75587 228.02016 288.875 216.34375 C 283.41054 209.15916 252.78563 178.21286 213.59375 140.34375 C 190.78539 118.30521 184.31903 111.50882 182.28125 107.34375 C 180.86952 104.45829 177.70701 94.0742 175.25 84.25 C 168.83649 58.6059 162.7523 47.54542 146.59375 32.25 C 135.05216 21.324929 124.3845 15.88925 107.3125 12.21875 C 100.80699 10.820056 92.338134 10.034613 84.53125 10 z M 70.3125 52.3125 C 75.446 52.3125 76.26161 52.60263 78.90625 55.5625 C 83.34558 60.53098 82.28011 67.46679 76.65625 70.375 C 75.14064 71.15875 72.03231 71.8125 69.75 71.8125 C 66.36411 71.8125 64.99296 71.18046 62.21875 68.40625 C 57.83712 64.02462 57.6718 60.09182 61.71875 55.5625 C 64.36339 52.60263 65.179 52.3125 70.3125 52.3125 z M 212.09375 189.625 L 212.28125 189.625 C 217.60124 189.625 221.78125 193.82876 221.78125 199.71875 C 221.78125 204.84874 217.60374 209.40625 212.09375 209.40625 C 206.77376 209.40625 202.40625 204.84874 202.40625 199.71875 C 202.40625 193.82876 206.77376 189.625 212.09375 189.625 z M 174.65625 189.84375 L 174.84375 189.84375 C 180.16374 189.84375 184.34375 194.01876 184.34375 199.71875 C 184.34375 204.84874 180.16624 209.40625 174.65625 209.40625 C 169.52626 209.40625 164.96875 204.84874 164.96875 199.71875 C 164.96875 194.01876 169.52626 189.84375 174.65625 189.84375 z M 196.90625 215.28125 C 209.25624 248.91122 222.17876 284.46128 234.71875 318.28125 C 240.79874 335.00123 243.45751 336.88875 256.1875 338.21875 L 256.1875 343.71875 L 207.34375 343.71875 L 207.34375 338.21875 C 219.69374 336.50875 221.41 334.78499 218.75 327.375 C 216.28 319.77501 212.68 309.71499 208.5 298.125 L 166.6875 298.125 C 163.6475 307.05499 161.00125 314.83501 158.53125 322.625 C 154.16125 334.59499 155.67752 336.69875 170.6875 338.21875 L 170.6875 343.71875 L 127.75 343.71875 L 127.75 338.21875 C 140.28999 336.31875 142.93876 335.00373 149.96875 318.09375 L 190.4375 217 L 196.90625 215.28125 z M 188.15625 241.3125 C 181.69626 257.46248 175.79374 274.19877 170.09375 289.96875 L 205.4375 289.96875 L 188.53125 241.3125 L 188.15625 241.3125 z "
       transform="translate(109.41173,78.238037)"
       id="path3052" />
  </g>
</svg>
